# xmcd
#
# Track frame offsets: 
#        150
#        11588
#        22619
#        38571
#        52988
#        64897
#        79019
#        89838
#        103741
#        118849
#        132874
#        149287
#
# Disc length: 2140 seconds
#
# Revision: 0
# Processed by: cddbd v1.5.2PL0 Copyright (c) Steve Scherf et al.
# Submitted via: ExactAudioCopy v1.3
#
DISCID=99085a0c
DTITLE=費玉清 - 白雲長在天
DYEAR=1978
DGENRE=國語歌曲
TTITLE0=白雲長在天
TTITLE1=滿山花開放 
TTITLE2=心聲
TTITLE3=海的追憶
TTITLE4=呼聲
TTITLE5=難忘秋的回憶 
TTITLE6=秋雨、伊人、我
TTITLE7=下雨天
TTITLE8=迎接愛的時光
TTITLE9=昨夜你還在這裡
TTITLE10=夕陽泛舟
TTITLE11=你帶給我幸福
EXTD=
EXTT0=
EXTT1=
EXTT2=
EXTT3=
EXTT4=
EXTT5=
EXTT6=
EXTT7=
EXTT8=
EXTT9=
EXTT10=
EXTT11=
PLAYORDER=
